<svg
  xmlns="http://www.w3.org/2000/svg"
  width="4"
  height="14"
  viewBox="0 0 4 14"
  fill="none"
>
  <path
    d="M1.99699 11.4982C1.72188 11.4982 1.49678 11.7233 1.49979 11.9984C1.49979 12.2735 1.72488 12.4986 1.99999 12.4986C2.27511 12.4986 2.5002 12.2735 2.5002 11.9984C2.5002 11.7233 2.27511 11.4982 1.99699 11.4982"
    stroke="#8C9195"
    stroke-width="1.5"
    stroke-linecap="round"
    stroke-linejoin="round"
  />
  <path
    d="M1.99699 6.49768C1.72188 6.49768 1.49678 6.72277 1.49979 6.99789C1.49979 7.273 1.72488 7.4981 1.99999 7.4981C2.27511 7.4981 2.5002 7.273 2.5002 6.99789C2.5002 6.72277 2.27511 6.49768 1.99699 6.49768"
    stroke="#8C9195"
    stroke-width="1.5"
    stroke-linecap="round"
    stroke-linejoin="round"
  />
  <path
    d="M1.99699 1.49731C1.72188 1.49731 1.49678 1.72241 1.49979 1.99752C1.49979 2.27264 1.72488 2.49773 1.99999 2.49773C2.27511 2.49773 2.5002 2.27264 2.5002 1.99752C2.5002 1.72241 2.27511 1.49731 1.99699 1.49731"
    stroke="#8C9195"
    stroke-width="1.5"
    stroke-linecap="round"
    stroke-linejoin="round"
  />
</svg>