<svg width="40" height="40" viewBox="0 0 40 40" fill="none" xmlns="http://www.w3.org/2000/svg">
<path d="M4.52173 13.9131C4.52173 12.2802 5.84541 10.9565 7.47825 10.9565C9.11109 10.9565 10.4348 12.2802 10.4348 13.9131V35.1305H4.52173V13.9131Z" fill="#E6E953"/>
<path d="M12.8695 10.087C12.8695 8.45417 14.1932 7.13049 15.826 7.13049C17.4589 7.13049 18.7826 8.45417 18.7826 10.087V35.1305H12.8695V10.087Z" fill="#E6E953"/>
<path d="M21.2174 20.5217C21.2174 18.8889 22.5411 17.5652 24.1739 17.5652C25.8068 17.5652 27.1305 18.8889 27.1305 20.5217V35.1304H21.2174V20.5217Z" fill="#E6E953"/>
<path d="M29.5652 15.826C29.5652 14.1932 30.8889 12.8695 32.5217 12.8695C34.1545 12.8695 35.4782 14.1932 35.4782 15.826V35.1304H29.5652V15.826Z" fill="#E6E953"/>
</svg>
