<svg width="120" height="121" viewBox="0 0 120 121" fill="none" xmlns="http://www.w3.org/2000/svg">
<circle cx="60" cy="60.5" r="60" fill="#E8F2FF"/>
<path d="M39.9997 33.8335V87.1668" stroke="#167AFE" stroke-width="4" stroke-linecap="round" stroke-linejoin="round"/>
<path fill-rule="evenodd" clip-rule="evenodd" d="M83.3333 87.1668H36.6667C32.9833 87.1668 30 84.1835 30 80.5002V40.5002C30 36.8168 32.9833 33.8335 36.6667 33.8335H83.3333C87.0167 33.8335 90 36.8168 90 40.5002V80.5002C90 84.1835 87.0167 87.1668 83.3333 87.1668Z" stroke="#167AFE" stroke-width="4" stroke-linecap="round" stroke-linejoin="round"/>
<path d="M64.7137 64.1191C67.3172 66.7226 67.3172 70.9437 64.7137 73.5472C62.1102 76.1507 57.8891 76.1507 55.2856 73.5472C52.6821 70.9437 52.6821 66.7226 55.2856 64.1191C57.8891 61.5156 62.1102 61.5156 64.7137 64.1191" stroke="#167AFE" stroke-width="4" stroke-linecap="round" stroke-linejoin="round"/>
<path d="M76.667 48.8333L66.667 45.5V68.8333" stroke="#167AFE" stroke-width="4" stroke-linecap="round" stroke-linejoin="round"/>
</svg>
