<svg width="24" height="24" viewBox="0 0 24 24" fill="none" xmlns="http://www.w3.org/2000/svg">
<path d="M6 4V20" stroke="#00192C" stroke-width="1.5" stroke-linecap="round" stroke-linejoin="round"/>
<path fill-rule="evenodd" clip-rule="evenodd" d="M19 20H5C3.895 20 3 19.105 3 18V6C3 4.895 3.895 4 5 4H19C20.105 4 21 4.895 21 6V18C21 19.105 20.105 20 19 20Z" stroke="#00192C" stroke-width="1.4907" stroke-linecap="round" stroke-linejoin="round"/>
<path d="M13.4142 13.0858C14.1953 13.8668 14.1953 15.1332 13.4142 15.9142C12.6332 16.6953 11.3668 16.6953 10.5858 15.9142C9.80474 15.1332 9.80474 13.8668 10.5858 13.0858C11.3668 12.3047 12.6332 12.3047 13.4142 13.0858" stroke="#00192C" stroke-width="1.5" stroke-linecap="round" stroke-linejoin="round"/>
<path d="M17 8.5L14 7.5V14.5" stroke="#00192C" stroke-width="1.5" stroke-linecap="round" stroke-linejoin="round"/>
</svg>
