<svg width="152" height="20" viewBox="0 0 152 20" fill="none" xmlns="http://www.w3.org/2000/svg">
<path d="M0.584 19V1.12H7.424C8.656 1.12 9.744 1.336 10.688 1.768C11.648 2.2 12.4 2.84 12.944 3.688C13.488 4.536 13.76 5.584 13.76 6.832C13.76 8.048 13.48 9.088 12.92 9.952C12.36 10.8 11.608 11.44 10.664 11.872L14.744 19H10.568L6.152 11.104L8.552 12.52H4.304V19H0.584ZM4.304 9.28H7.448C7.976 9.28 8.432 9.176 8.816 8.968C9.2 8.76 9.496 8.472 9.704 8.104C9.928 7.736 10.04 7.312 10.04 6.832C10.04 6.336 9.928 5.904 9.704 5.536C9.496 5.168 9.2 4.88 8.816 4.672C8.432 4.464 7.976 4.36 7.448 4.36H4.304V9.28ZM20.3838 19.288C19.4398 19.288 18.6238 19.136 17.9358 18.832C17.2478 18.528 16.7198 18.096 16.3518 17.536C15.9838 16.96 15.7998 16.28 15.7998 15.496C15.7998 14.76 15.9678 14.112 16.3038 13.552C16.6398 12.976 17.1518 12.496 17.8398 12.112C18.5438 11.728 19.4158 11.456 20.4558 11.296L24.4638 10.648V13.288L21.1038 13.888C20.5918 13.984 20.1998 14.152 19.9278 14.392C19.6558 14.616 19.5198 14.944 19.5198 15.376C19.5198 15.776 19.6718 16.088 19.9758 16.312C20.2798 16.536 20.6558 16.648 21.1038 16.648C21.6958 16.648 22.2158 16.52 22.6638 16.264C23.1118 16.008 23.4558 15.664 23.6958 15.232C23.9518 14.784 24.0798 14.296 24.0798 13.768V10.36C24.0798 9.864 23.8798 9.448 23.4798 9.112C23.0958 8.776 22.5678 8.608 21.8958 8.608C21.2558 8.608 20.6878 8.784 20.1918 9.136C19.7118 9.488 19.3598 9.952 19.1358 10.528L16.2558 9.16C16.5118 8.424 16.9198 7.792 17.4798 7.264C18.0398 6.736 18.7118 6.328 19.4958 6.04C20.2798 5.752 21.1358 5.608 22.0638 5.608C23.1678 5.608 24.1438 5.808 24.9918 6.208C25.8398 6.608 26.4958 7.168 26.9598 7.888C27.4398 8.592 27.6798 9.416 27.6798 10.36V19H24.3198V16.888L25.1358 16.744C24.7518 17.32 24.3278 17.8 23.8638 18.184C23.3998 18.552 22.8798 18.824 22.3038 19C21.7278 19.192 21.0878 19.288 20.3838 19.288ZM36.488 19.288C35.208 19.288 34.064 18.984 33.056 18.376C32.048 17.768 31.248 16.944 30.656 15.904C30.08 14.864 29.792 13.712 29.792 12.448C29.792 11.168 30.088 10.016 30.68 8.992C31.272 7.952 32.072 7.128 33.08 6.52C34.088 5.912 35.216 5.608 36.464 5.608C37.424 5.608 38.272 5.792 39.008 6.16C39.76 6.512 40.352 7.016 40.784 7.672L40.232 8.392V0.831999H43.832V19H40.472V16.6L40.808 17.344C40.36 17.984 39.752 18.472 38.984 18.808C38.216 19.128 37.384 19.288 36.488 19.288ZM36.92 16.048C37.576 16.048 38.152 15.896 38.648 15.592C39.144 15.288 39.528 14.864 39.8 14.32C40.088 13.776 40.232 13.152 40.232 12.448C40.232 11.744 40.088 11.12 39.8 10.576C39.528 10.032 39.144 9.608 38.648 9.304C38.152 9 37.576 8.848 36.92 8.848C36.264 8.848 35.672 9.008 35.144 9.328C34.632 9.632 34.232 10.056 33.944 10.6C33.656 11.128 33.512 11.744 33.512 12.448C33.512 13.152 33.656 13.776 33.944 14.32C34.232 14.864 34.632 15.288 35.144 15.592C35.672 15.896 36.264 16.048 36.92 16.048ZM46.4684 19V5.896H50.0684V19H46.4684ZM46.4684 4.72V1.12H50.0684V4.72H46.4684ZM59.2068 19.288C57.9108 19.288 56.7268 18.992 55.6548 18.4C54.5988 17.808 53.7508 17 53.1108 15.976C52.4868 14.936 52.1748 13.76 52.1748 12.448C52.1748 11.12 52.4868 9.944 53.1108 8.92C53.7508 7.896 54.5988 7.088 55.6548 6.496C56.7268 5.904 57.9108 5.608 59.2068 5.608C60.5028 5.608 61.6788 5.904 62.7348 6.496C63.7908 7.088 64.6308 7.896 65.2548 8.92C65.8948 9.944 66.2148 11.12 66.2148 12.448C66.2148 13.76 65.8948 14.936 65.2548 15.976C64.6308 17 63.7908 17.808 62.7348 18.4C61.6788 18.992 60.5028 19.288 59.2068 19.288ZM59.2068 16.048C59.8628 16.048 60.4308 15.896 60.9108 15.592C61.4068 15.288 61.7908 14.864 62.0628 14.32C62.3508 13.776 62.4948 13.152 62.4948 12.448C62.4948 11.744 62.3508 11.128 62.0628 10.6C61.7908 10.056 61.4068 9.632 60.9108 9.328C60.4308 9.008 59.8628 8.848 59.2068 8.848C58.5508 8.848 57.9748 9.008 57.4788 9.328C56.9828 9.632 56.5908 10.056 56.3028 10.6C56.0308 11.128 55.8948 11.744 55.8948 12.448C55.8948 13.152 56.0308 13.776 56.3028 14.32C56.5908 14.864 56.9828 15.288 57.4788 15.592C57.9748 15.896 58.5508 16.048 59.2068 16.048ZM72.9121 19V1.12H79.7761C81.0081 1.12 82.0961 1.336 83.0401 1.768C84.0001 2.2 84.7521 2.84 85.2961 3.688C85.8401 4.536 86.1121 5.584 86.1121 6.832C86.1121 8.048 85.8321 9.08 85.2721 9.928C84.7281 10.776 83.9761 11.424 83.0161 11.872C82.0721 12.304 80.9921 12.52 79.7761 12.52H76.6321V19H72.9121ZM76.6321 9.28H79.8001C80.3281 9.28 80.7841 9.176 81.1681 8.968C81.5521 8.76 81.8481 8.472 82.0561 8.104C82.2801 7.736 82.3921 7.312 82.3921 6.832C82.3921 6.336 82.2801 5.904 82.0561 5.536C81.8481 5.168 81.5521 4.88 81.1681 4.672C80.7841 4.464 80.3281 4.36 79.8001 4.36H76.6321V9.28ZM88.2341 19V5.896H91.5941V9.04L91.3541 8.584C91.6421 7.48 92.1141 6.736 92.7701 6.352C93.4421 5.952 94.2341 5.752 95.1461 5.752H95.9141V8.872H94.7861C93.9061 8.872 93.1941 9.144 92.6501 9.688C92.1061 10.216 91.8341 10.968 91.8341 11.944V19H88.2341ZM103.996 19.288C102.7 19.288 101.516 18.992 100.444 18.4C99.3879 17.808 98.5399 17 97.8999 15.976C97.2759 14.936 96.9639 13.76 96.9639 12.448C96.9639 11.12 97.2759 9.944 97.8999 8.92C98.5399 7.896 99.3879 7.088 100.444 6.496C101.516 5.904 102.7 5.608 103.996 5.608C105.292 5.608 106.468 5.904 107.524 6.496C108.58 7.088 109.42 7.896 110.044 8.92C110.684 9.944 111.004 11.12 111.004 12.448C111.004 13.76 110.684 14.936 110.044 15.976C109.42 17 108.58 17.808 107.524 18.4C106.468 18.992 105.292 19.288 103.996 19.288ZM103.996 16.048C104.652 16.048 105.22 15.896 105.7 15.592C106.196 15.288 106.58 14.864 106.852 14.32C107.14 13.776 107.284 13.152 107.284 12.448C107.284 11.744 107.14 11.128 106.852 10.6C106.58 10.056 106.196 9.632 105.7 9.328C105.22 9.008 104.652 8.848 103.996 8.848C103.34 8.848 102.764 9.008 102.268 9.328C101.772 9.632 101.38 10.056 101.092 10.6C100.82 11.128 100.684 11.744 100.684 12.448C100.684 13.152 100.82 13.776 101.092 14.32C101.38 14.864 101.772 15.288 102.268 15.592C102.764 15.896 103.34 16.048 103.996 16.048ZM113.125 19V5.896H116.485V8.488L116.293 7.912C116.597 7.128 117.085 6.552 117.757 6.184C118.445 5.8 119.245 5.608 120.157 5.608C121.149 5.608 122.013 5.816 122.749 6.232C123.501 6.648 124.085 7.232 124.501 7.984C124.917 8.72 125.125 9.584 125.125 10.576V19H121.525V11.344C121.525 10.832 121.421 10.392 121.213 10.024C121.021 9.656 120.741 9.368 120.373 9.16C120.021 8.952 119.605 8.848 119.125 8.848C118.661 8.848 118.245 8.952 117.877 9.16C117.509 9.368 117.221 9.656 117.013 10.024C116.821 10.392 116.725 10.832 116.725 11.344V19H113.125ZM133.804 19.144C132.22 19.144 130.988 18.72 130.108 17.872C129.244 17.008 128.812 15.808 128.812 14.272V9.016H126.604V5.896H126.724C127.396 5.896 127.908 5.728 128.26 5.392C128.628 5.056 128.812 4.552 128.812 3.88V2.92H132.412V5.896H135.484V9.016H132.412V14.032C132.412 14.48 132.492 14.856 132.652 15.16C132.812 15.448 133.06 15.664 133.396 15.808C133.732 15.952 134.148 16.024 134.644 16.024C134.756 16.024 134.884 16.016 135.028 16C135.172 15.984 135.324 15.968 135.484 15.952V19C135.244 19.032 134.972 19.064 134.668 19.096C134.364 19.128 134.076 19.144 133.804 19.144ZM144.097 19.288C142.801 19.288 141.617 18.992 140.545 18.4C139.489 17.808 138.641 17 138.001 15.976C137.377 14.936 137.065 13.76 137.065 12.448C137.065 11.12 137.377 9.944 138.001 8.92C138.641 7.896 139.489 7.088 140.545 6.496C141.617 5.904 142.801 5.608 144.097 5.608C145.393 5.608 146.569 5.904 147.625 6.496C148.681 7.088 149.521 7.896 150.145 8.92C150.785 9.944 151.105 11.12 151.105 12.448C151.105 13.76 150.785 14.936 150.145 15.976C149.521 17 148.681 17.808 147.625 18.4C146.569 18.992 145.393 19.288 144.097 19.288ZM144.097 16.048C144.753 16.048 145.321 15.896 145.801 15.592C146.297 15.288 146.681 14.864 146.953 14.32C147.241 13.776 147.385 13.152 147.385 12.448C147.385 11.744 147.241 11.128 146.953 10.6C146.681 10.056 146.297 9.632 145.801 9.328C145.321 9.008 144.753 8.848 144.097 8.848C143.441 8.848 142.865 9.008 142.369 9.328C141.873 9.632 141.481 10.056 141.193 10.6C140.921 11.128 140.785 11.744 140.785 12.448C140.785 13.152 140.921 13.776 141.193 14.32C141.481 14.864 141.873 15.288 142.369 15.592C142.865 15.896 143.441 16.048 144.097 16.048Z" fill="white"/>
</svg>
