<svg width="48" height="48" viewBox="0 0 48 48" fill="none" xmlns="http://www.w3.org/2000/svg">
<rect width="48" height="48" rx="24" fill="white"/>
<path fill-rule="evenodd" clip-rule="evenodd" d="M28 32C26.896 32 26 31.104 26 30V18C26 16.896 26.896 16 28 16C29.104 16 30 16.896 30 18V30C30 31.104 29.104 32 28 32Z" fill="#167AFE"/>
<path fill-rule="evenodd" clip-rule="evenodd" d="M20 32C18.896 32 18 31.104 18 30V18C18 16.896 18.896 16 20 16C21.104 16 22 16.896 22 18V30C22 31.104 21.104 32 20 32Z" fill="#167AFE"/>
</svg>
