<svg width="40" height="40" viewBox="0 0 40 40" fill="none" xmlns="http://www.w3.org/2000/svg">
<rect width="40" height="40" rx="20" fill="#E6E953"/>
<path fill-rule="evenodd" clip-rule="evenodd" d="M24 28C22.896 28 22 27.104 22 26V14C22 12.896 22.896 12 24 12C25.104 12 26 12.896 26 14V26C26 27.104 25.104 28 24 28Z" fill="#09336B"/>
<path fill-rule="evenodd" clip-rule="evenodd" d="M16 28C14.896 28 14 27.104 14 26V14C14 12.896 14.896 12 16 12C17.104 12 18 12.896 18 14V26C18 27.104 17.104 28 16 28Z" fill="#09336B"/>
</svg>
