<svg width="25" height="24" viewBox="0 0 25 24" fill="none" xmlns="http://www.w3.org/2000/svg">
<g clip-path="url(#clip0_797_26660)">
<path d="M18.2589 13.7909C18.2121 13.7685 16.4624 12.9069 16.1515 12.795C16.0246 12.7494 15.8886 12.7049 15.744 12.7049C15.5077 12.7049 15.3093 12.8227 15.1547 13.0539C14.9799 13.3137 14.4508 13.9322 14.2873 14.117C14.266 14.1413 14.2368 14.1705 14.2194 14.1705C14.2037 14.1705 13.9329 14.059 13.851 14.0234C11.9741 13.2081 10.5494 11.2475 10.3541 10.9169C10.3262 10.8693 10.325 10.8477 10.3248 10.8477C10.3316 10.8226 10.3947 10.7593 10.4273 10.7266C10.5226 10.6324 10.6258 10.5081 10.7257 10.3878C10.773 10.3309 10.8204 10.2738 10.8669 10.2201C11.0119 10.0515 11.0764 9.92054 11.1512 9.76891L11.1904 9.69013C11.373 9.32724 11.217 9.02101 11.1666 8.92213C11.1252 8.83937 10.3865 7.05636 10.3079 6.86904C10.119 6.41701 9.86946 6.20654 9.52263 6.20654C9.49044 6.20654 9.52263 6.20654 9.38766 6.21223C9.22333 6.21917 8.32839 6.33698 7.9327 6.58641C7.51309 6.85096 6.80322 7.69423 6.80322 9.17724C6.80322 10.512 7.65024 11.7722 8.0139 12.2515C8.02294 12.2636 8.03953 12.2881 8.06361 12.3233C9.45631 14.3573 11.1925 15.8646 12.9525 16.5677C14.6469 17.2445 15.4493 17.3228 15.9055 17.3228H15.9055C16.0972 17.3228 16.2507 17.3077 16.386 17.2944L16.4719 17.2862C17.0572 17.2343 18.3436 16.5678 18.6362 15.7546C18.8667 15.1142 18.9274 14.4145 18.7741 14.1605C18.669 13.9878 18.488 13.901 18.2589 13.7909Z" fill="#00192C"/>
<path d="M12.7129 0.25C19.0759 0.25 24.2499 5.38806 24.25 11.6992C24.25 18.0098 19.0759 23.1475 12.7129 23.1475L12.3555 23.1416C10.5697 23.0866 8.81434 22.6214 7.25098 21.7861L7.1582 21.7363L7.05762 21.7686L0.830078 23.7471C0.824221 23.7489 0.817915 23.75 0.811523 23.75C0.803399 23.75 0.79548 23.7482 0.788086 23.7451L0.767578 23.7314L0.751953 23.7021L0.75293 23.6689L2.77832 17.6963L2.81445 17.5879L2.75586 17.4883C1.72113 15.7395 1.1748 13.7409 1.1748 11.6992C1.17493 5.38812 6.34937 0.250069 12.7129 0.25ZM12.7129 2.1875C7.42835 2.18753 3.12611 6.45214 3.12598 11.6992C3.12598 13.5894 3.68112 15.4031 4.73438 16.9668L4.95215 17.2764C4.95807 17.2845 4.96142 17.2941 4.96289 17.3037L4.95996 17.333L3.95312 20.3037L3.79492 20.7725L4.26562 20.6221L7.38574 19.6309C7.39193 19.6289 7.39815 19.6279 7.4043 19.6279L7.4375 19.6377H7.43848C9.00643 20.6665 10.8303 21.2109 12.7129 21.2109C17.997 21.2109 22.2989 16.9458 22.2988 11.6992L22.2861 11.2109C22.029 6.1901 17.8319 2.1875 12.7129 2.1875Z" fill="#00192C" stroke="white" stroke-width="0.5"/>
</g>
<defs>
<clipPath id="clip0_797_26660">
<rect width="24" height="24" fill="white" transform="translate(0.5)"/>
</clipPath>
</defs>
</svg>
